<?xml version="1.0" standalone="no"?>
<!DOCTYPE svg PUBLIC "-//W3C//DTD SVG 20010904//EN"
 "http://www.w3.org/TR/2001/REC-SVG-20010904/DTD/svg10.dtd">
<svg version="1.0" xmlns="http://www.w3.org/2000/svg"
 width="900.000000pt" height="900.000000pt" viewBox="0 0 900.000000 900.000000"
 preserveAspectRatio="xMidYMid meet">
<metadata>
Created by potrace 1.16, written by Peter Selinger 2001-2019
</metadata>
<g transform="translate(0.000000,900.000000) scale(0.100000,-0.100000)"
fill="#000000" stroke="none">
<path d="M0 4500 l0 -4500 4500 0 4500 0 0 4500 0 4500 -4500 0 -4500 0 0
-4500z m1962 2590 c43 -12 90 -63 109 -117 12 -32 14 -441 14 -2423 0 -2290
-1 -2387 -18 -2445 -14 -45 -30 -71 -64 -103 l-44 -43 -254 3 c-294 3 -289 2
-340 103 l-30 60 -6 540 c-4 297 -7 1214 -8 2038 -1 1025 -4 1497 -11 1497 -6
0 -62 -12 -125 -26 -129 -29 -168 -27 -214 12 -57 47 -66 94 -66 329 0 194 2
214 22 257 41 88 26 83 908 311 75 19 82 19 127 7z m1738 -12 c35 -18 51 -35
70 -73 l25 -50 3 -2390 2 -2389 -21 -63 c-11 -35 -33 -78 -47 -95 -45 -53 -70
-58 -305 -58 -118 0 -229 3 -246 6 -40 8 -88 55 -115 114 l-21 45 -5 2032 c-3
1117 -8 2035 -13 2039 -4 4 -49 -2 -100 -14 -168 -39 -193 -38 -245 11 -57 53
-62 77 -62 319 0 195 3 228 19 263 21 47 44 69 92 89 72 30 854 235 899 236
14 0 46 -10 70 -22z m1557 11 c38 -14 81 -56 105 -103 19 -38 20 -63 26 -703
l5 -663 204 0 c229 0 251 -5 300 -64 45 -55 54 -100 54 -268 0 -145 -1 -153
-28 -206 -15 -31 -39 -64 -53 -74 -39 -28 -119 -38 -306 -38 l-174 0 0 -982
c0 -581 4 -1022 10 -1078 19 -175 66 -308 117 -328 15 -6 107 -13 203 -15 190
-5 224 -13 272 -62 42 -42 50 -90 46 -269 -3 -182 -12 -208 -87 -260 l-39 -27
-308 3 -309 3 -82 32 c-106 40 -176 88 -255 171 -101 108 -159 237 -203 455
-41 208 -45 311 -45 1354 l0 992 -32 5 c-18 3 -65 7 -105 9 -156 9 -203 83
-203 322 0 131 12 201 43 247 37 53 72 67 190 75 l107 6 0 35 c0 110 62 1225
70 1267 16 77 48 127 100 153 40 20 58 22 196 22 84 0 165 -5 181 -11z m1509
-1495 c64 -47 84 -86 119 -230 19 -76 121 -528 226 -1004 106 -476 195 -868
198 -872 4 -4 66 322 140 725 188 1035 229 1244 250 1285 24 46 77 97 114 111
16 6 96 11 179 11 179 0 212 -12 250 -89 45 -90 37 -162 -96 -841 -64 -333
-198 -1023 -297 -1535 -275 -1421 -276 -1427 -364 -1643 -95 -234 -251 -385
-450 -437 -125 -33 -351 -15 -461 36 -67 31 -156 123 -172 175 -15 50 -15 232
-1 294 20 88 89 160 154 160 17 0 85 -14 153 -31 l123 -32 23 22 c69 65 119
230 120 391 0 131 -12 181 -259 1150 -521 2037 -528 2068 -528 2160 1 54 6 98
16 120 18 40 62 86 92 93 11 3 115 5 232 4 197 -2 214 -3 239 -23z"/>
</g>
</svg>
